# File created by Blade
# Date/Time:  Thu Jan 22 16:04:59 2015
# Frame Rate: 120.000 fps
#------------------------------------------------------
:FULLY-SPECIFIED
:DEGREES
1813
root 3.639361 36.972013 3.797204 -4.392711 -0.618989 1.865981
RightUpLeg 9.870210 -4.692472 -9.207363
RightLeg -4.281834 -0.000000 0.000000
RightFoot -9.407503 -14.701062 19.070537
RightToeBase 11.521467 -0.000000 -0.000000
LeftUpLeg 6.559916 -2.164482 6.969693
LeftLeg -1.537807 -0.000000 0.000000
LeftFoot -3.349377 4.231081 -22.099638
LeftToeBase 7.580394 -0.000000 -0.000000
Spine 9.315017 -7.399132 -2.770290
RightShoulder 14.859500 -17.134010 -19.202047
RightArm 36.694228 -23.465631 37.998508
RightForeArm -24.596664 0.000000 17.335914
RightHand 3.206294 -0.000000 1.630882
RightHandThumb1 -24.326973 -0.000000 -32.862282
LeftShoulder -4.909713 26.644144 13.153454
LeftArm 53.475853 -0.410451 -44.059007
LeftForeArm 52.960468 -0.000000 5.757485
LeftHand -11.115734 -0.000000 -2.888129
LeftHandThumb1 -26.253704 0.000000 33.147579
Head 1.074831 13.915885 0.304546
1814
root 3.636745 36.969677 3.785309 -4.533390 -0.604996 1.866040
RightUpLeg 10.015802 -4.684607 -9.213955
RightLeg -4.330597 -0.000000 0.000000
RightFoot -9.376244 -14.732725 19.032783
RightToeBase 11.391454 -0.000000 -0.000000
LeftUpLeg 6.685123 -2.181381 6.969287
LeftLeg -1.553015 -0.000000 0.000000
LeftFoot -3.331436 4.230668 -22.075068
LeftToeBase 7.554178 -0.000000 -0.000000
Spine 9.319831 -7.320354 -2.772886
RightShoulder 15.414314 -16.674691 -19.356709
RightArm 37.969109 -23.373995 37.560247
RightForeArm -24.954115 -0.000000 17.437418
RightHand 3.211752 -0.000000 1.216493
RightHandThumb1 -24.326973 -0.000000 -32.862282
LeftShoulder -4.276270 26.341014 13.623123
LeftArm 54.544619 -0.572871 -43.997415
LeftForeArm 52.926698 -0.000000 5.937762
LeftHand -11.269397 0.000000 -2.999842
LeftHandThumb1 -26.253704 0.000000 33.147579
Head 1.266041 13.805137 0.372969
1815
root 3.630210 36.967428 3.770134 -4.618203 -0.618903 1.853660
RightUpLeg 10.086910 -4.644298 -9.190850
RightLeg -4.356263 -0.000000 0.000000
RightFoot -9.365426 -14.751467 19.027926
RightToeBase 11.505053 -0.000000 -0.000000
LeftUpLeg 6.754183 -2.176549 6.992349
LeftLeg -1.566148 -0.000000 0.000000
LeftFoot -3.313479 4.234097 -22.072720
LeftToeBase 7.550395 -0.000000 -0.000000
Spine 9.269598 -7.224490 -2.753216
RightShoulder 15.947693 -16.318962 -19.505355
RightArm 39.326062 -23.175545 37.131054
RightForeArm -25.345279 -0.000000 17.539863
RightHand 3.369994 -0.000000 0.614790
RightHandThumb1 -24.326973 -0.000000 -32.862282
LeftShoulder -3.671776 25.951390 14.061653
LeftArm 55.545907 -0.624875 -43.928355
LeftForeArm 53.231244 -0.000000 6.030404
LeftHand -11.296041 0.000000 -2.684867
LeftHandThumb1 -26.253704 0.000000 33.147579
Head 1.425838 13.717289 0.415673
1816
root 3.628478 36.964769 3.761530 -4.746447 -0.642279 1.867514
RightUpLeg 10.213516 -4.611056 -9.211832
RightLeg -4.395933 -0.000000 0.000000
RightFoot -9.333930 -14.750158 18.985944
RightToeBase 11.485112 -0.000000 -0.000000
LeftUpLeg 6.892905 -2.167154 6.979072
LeftLeg -1.605030 -0.000000 0.000000
LeftFoot -3.301333 4.237985 -22.115045
LeftToeBase 7.548789 -0.000000 -0.000000
Spine 9.248108 -7.116934 -2.751429
RightShoulder 16.490600 -16.012024 -19.689152
RightArm 40.756587 -23.103758 36.537066
RightForeArm -25.578992 -0.000000 17.711484
RightHand 3.082537 -0.000000 0.789175
RightHandThumb1 -24.326973 -0.000000 -32.862282
LeftShoulder -3.075138 25.585136 14.430622
LeftArm 56.481584 -0.418228 -43.344007
LeftForeArm 52.916250 -0.000000 6.328200
LeftHand -11.332350 0.000000 -2.690162
LeftHandThumb1 -26.253704 0.000000 33.147579
Head 1.614633 13.610261 0.405841
